<mxfile host="app.diagrams.net" agent="Mozilla/5.0 (Windows NT 10.0; Win64; x64) AppleWebKit/537.36 (KHTML, like Gecko) Chrome/131.0.0.0 Safari/537.36" version="25.0.3">
  <diagram name="Page-1" id="LFTmVtG8ItkKG3ioh3ng">
    <mxGraphModel dx="2345" dy="709" grid="1" gridSize="10" guides="1" tooltips="1" connect="1" arrows="1" fold="1" page="1" pageScale="1" pageWidth="827" pageHeight="1169" math="0" shadow="0">
      <root>
        <mxCell id="0" />
        <mxCell id="1" parent="0" />
        <mxCell id="i1PZRHmyKHhRNwpCMiLn-33" value="Guest" style="whiteSpace=wrap;html=1;align=center;" vertex="1" parent="1">
          <mxGeometry x="390" y="160" width="100" height="40" as="geometry" />
        </mxCell>
        <mxCell id="i1PZRHmyKHhRNwpCMiLn-34" value="passport_id" style="ellipse;whiteSpace=wrap;html=1;align=center;fontStyle=4;" vertex="1" parent="1">
          <mxGeometry x="330" y="60" width="100" height="40" as="geometry" />
        </mxCell>
        <mxCell id="i1PZRHmyKHhRNwpCMiLn-36" value="" style="endArrow=none;html=1;rounded=0;exitX=0.5;exitY=1;exitDx=0;exitDy=0;entryX=0.5;entryY=0;entryDx=0;entryDy=0;" edge="1" parent="1" source="i1PZRHmyKHhRNwpCMiLn-37" target="i1PZRHmyKHhRNwpCMiLn-33">
          <mxGeometry width="50" height="50" relative="1" as="geometry">
            <mxPoint x="490" y="130" as="sourcePoint" />
            <mxPoint x="510" y="160" as="targetPoint" />
            <Array as="points" />
          </mxGeometry>
        </mxCell>
        <mxCell id="i1PZRHmyKHhRNwpCMiLn-35" value="" style="endArrow=none;html=1;rounded=0;exitX=0.5;exitY=1;exitDx=0;exitDy=0;entryX=0.152;entryY=-0.025;entryDx=0;entryDy=0;entryPerimeter=0;" edge="1" parent="1" source="i1PZRHmyKHhRNwpCMiLn-34" target="i1PZRHmyKHhRNwpCMiLn-33">
          <mxGeometry width="50" height="50" relative="1" as="geometry">
            <mxPoint x="390" y="110" as="sourcePoint" />
            <mxPoint x="490" y="290" as="targetPoint" />
          </mxGeometry>
        </mxCell>
        <mxCell id="i1PZRHmyKHhRNwpCMiLn-37" value="phone" style="ellipse;whiteSpace=wrap;html=1;align=center;" vertex="1" parent="1">
          <mxGeometry x="470" y="60" width="100" height="40" as="geometry" />
        </mxCell>
        <mxCell id="i1PZRHmyKHhRNwpCMiLn-38" value="name" style="ellipse;whiteSpace=wrap;html=1;align=center;" vertex="1" parent="1">
          <mxGeometry x="390" y="20" width="100" height="40" as="geometry" />
        </mxCell>
        <mxCell id="i1PZRHmyKHhRNwpCMiLn-39" value="" style="endArrow=none;html=1;rounded=0;exitX=0.5;exitY=1;exitDx=0;exitDy=0;entryX=0.5;entryY=0;entryDx=0;entryDy=0;" edge="1" parent="1" source="i1PZRHmyKHhRNwpCMiLn-38" target="i1PZRHmyKHhRNwpCMiLn-33">
          <mxGeometry width="50" height="50" relative="1" as="geometry">
            <mxPoint x="450" y="70" as="sourcePoint" />
            <mxPoint x="484" y="160" as="targetPoint" />
            <Array as="points" />
          </mxGeometry>
        </mxCell>
        <mxCell id="i1PZRHmyKHhRNwpCMiLn-41" value="Room" style="whiteSpace=wrap;html=1;align=center;" vertex="1" parent="1">
          <mxGeometry x="50" y="160" width="100" height="40" as="geometry" />
        </mxCell>
        <mxCell id="i1PZRHmyKHhRNwpCMiLn-42" value="room_number" style="ellipse;whiteSpace=wrap;html=1;align=center;fontStyle=4;" vertex="1" parent="1">
          <mxGeometry y="70" width="100" height="40" as="geometry" />
        </mxCell>
        <mxCell id="i1PZRHmyKHhRNwpCMiLn-43" value="availability" style="ellipse;whiteSpace=wrap;html=1;align=center;" vertex="1" parent="1">
          <mxGeometry x="110" y="70" width="100" height="40" as="geometry" />
        </mxCell>
        <mxCell id="i1PZRHmyKHhRNwpCMiLn-44" value="room_view" style="ellipse;whiteSpace=wrap;html=1;align=center;" vertex="1" parent="1">
          <mxGeometry x="50" y="20" width="100" height="40" as="geometry" />
        </mxCell>
        <mxCell id="i1PZRHmyKHhRNwpCMiLn-45" value="" style="endArrow=none;html=1;rounded=0;entryX=0.592;entryY=1.015;entryDx=0;entryDy=0;entryPerimeter=0;exitX=0.4;exitY=0;exitDx=0;exitDy=0;exitPerimeter=0;" edge="1" parent="1" source="i1PZRHmyKHhRNwpCMiLn-41" target="i1PZRHmyKHhRNwpCMiLn-44">
          <mxGeometry width="50" height="50" relative="1" as="geometry">
            <mxPoint x="100" y="290" as="sourcePoint" />
            <mxPoint x="150" y="240" as="targetPoint" />
          </mxGeometry>
        </mxCell>
        <mxCell id="i1PZRHmyKHhRNwpCMiLn-46" value="" style="endArrow=none;html=1;rounded=0;entryX=0.5;entryY=1;entryDx=0;entryDy=0;exitX=0.25;exitY=0;exitDx=0;exitDy=0;" edge="1" parent="1" source="i1PZRHmyKHhRNwpCMiLn-41" target="i1PZRHmyKHhRNwpCMiLn-42">
          <mxGeometry width="50" height="50" relative="1" as="geometry">
            <mxPoint x="80" y="150" as="sourcePoint" />
            <mxPoint x="64" y="114" as="targetPoint" />
          </mxGeometry>
        </mxCell>
        <mxCell id="i1PZRHmyKHhRNwpCMiLn-47" value="" style="endArrow=none;html=1;rounded=0;entryX=0.5;entryY=1;entryDx=0;entryDy=0;exitX=0.75;exitY=0;exitDx=0;exitDy=0;" edge="1" parent="1" source="i1PZRHmyKHhRNwpCMiLn-41" target="i1PZRHmyKHhRNwpCMiLn-43">
          <mxGeometry width="50" height="50" relative="1" as="geometry">
            <mxPoint x="140" y="150" as="sourcePoint" />
            <mxPoint x="190" y="100" as="targetPoint" />
          </mxGeometry>
        </mxCell>
        <mxCell id="i1PZRHmyKHhRNwpCMiLn-48" value="price" style="ellipse;whiteSpace=wrap;html=1;align=center;" vertex="1" parent="1">
          <mxGeometry x="-70" y="110" width="100" height="40" as="geometry" />
        </mxCell>
        <mxCell id="i1PZRHmyKHhRNwpCMiLn-49" value="" style="endArrow=none;html=1;rounded=0;exitX=0.5;exitY=1;exitDx=0;exitDy=0;entryX=0;entryY=0.5;entryDx=0;entryDy=0;" edge="1" parent="1" source="i1PZRHmyKHhRNwpCMiLn-48" target="i1PZRHmyKHhRNwpCMiLn-41">
          <mxGeometry width="50" height="50" relative="1" as="geometry">
            <mxPoint x="390" y="240" as="sourcePoint" />
            <mxPoint x="440" y="190" as="targetPoint" />
          </mxGeometry>
        </mxCell>
        <mxCell id="i1PZRHmyKHhRNwpCMiLn-50" value="Reserve" style="shape=rhombus;perimeter=rhombusPerimeter;whiteSpace=wrap;html=1;align=center;" vertex="1" parent="1">
          <mxGeometry x="230" y="155" width="80" height="50" as="geometry" />
        </mxCell>
        <mxCell id="i1PZRHmyKHhRNwpCMiLn-53" value="Bookings" style="whiteSpace=wrap;html=1;align=center;" vertex="1" parent="1">
          <mxGeometry x="760" y="160" width="100" height="40" as="geometry" />
        </mxCell>
        <mxCell id="i1PZRHmyKHhRNwpCMiLn-54" value="booking_id" style="ellipse;whiteSpace=wrap;html=1;align=center;fontStyle=4;" vertex="1" parent="1">
          <mxGeometry x="710" y="70" width="100" height="40" as="geometry" />
        </mxCell>
        <mxCell id="i1PZRHmyKHhRNwpCMiLn-55" value="check_out" style="ellipse;whiteSpace=wrap;html=1;align=center;" vertex="1" parent="1">
          <mxGeometry x="820" y="70" width="100" height="40" as="geometry" />
        </mxCell>
        <mxCell id="i1PZRHmyKHhRNwpCMiLn-56" value="check_in" style="ellipse;whiteSpace=wrap;html=1;align=center;" vertex="1" parent="1">
          <mxGeometry x="760" y="20" width="100" height="40" as="geometry" />
        </mxCell>
        <mxCell id="i1PZRHmyKHhRNwpCMiLn-57" value="" style="endArrow=none;html=1;rounded=0;entryX=0.592;entryY=1.015;entryDx=0;entryDy=0;entryPerimeter=0;exitX=0.4;exitY=0;exitDx=0;exitDy=0;exitPerimeter=0;" edge="1" parent="1" source="i1PZRHmyKHhRNwpCMiLn-53" target="i1PZRHmyKHhRNwpCMiLn-56">
          <mxGeometry width="50" height="50" relative="1" as="geometry">
            <mxPoint x="810" y="290" as="sourcePoint" />
            <mxPoint x="860" y="240" as="targetPoint" />
          </mxGeometry>
        </mxCell>
        <mxCell id="i1PZRHmyKHhRNwpCMiLn-58" value="" style="endArrow=none;html=1;rounded=0;entryX=0.5;entryY=1;entryDx=0;entryDy=0;exitX=0.25;exitY=0;exitDx=0;exitDy=0;" edge="1" parent="1" source="i1PZRHmyKHhRNwpCMiLn-53" target="i1PZRHmyKHhRNwpCMiLn-54">
          <mxGeometry width="50" height="50" relative="1" as="geometry">
            <mxPoint x="790" y="150" as="sourcePoint" />
            <mxPoint x="774" y="114" as="targetPoint" />
          </mxGeometry>
        </mxCell>
        <mxCell id="i1PZRHmyKHhRNwpCMiLn-59" value="" style="endArrow=none;html=1;rounded=0;entryX=0.5;entryY=1;entryDx=0;entryDy=0;exitX=0.75;exitY=0;exitDx=0;exitDy=0;" edge="1" parent="1" source="i1PZRHmyKHhRNwpCMiLn-53" target="i1PZRHmyKHhRNwpCMiLn-55">
          <mxGeometry width="50" height="50" relative="1" as="geometry">
            <mxPoint x="850" y="150" as="sourcePoint" />
            <mxPoint x="900" y="100" as="targetPoint" />
          </mxGeometry>
        </mxCell>
        <mxCell id="i1PZRHmyKHhRNwpCMiLn-62" value="" style="endArrow=none;html=1;rounded=0;exitX=0.43;exitY=0.94;exitDx=0;exitDy=0;exitPerimeter=0;entryX=0.878;entryY=-0.025;entryDx=0;entryDy=0;entryPerimeter=0;" edge="1" parent="1" source="i1PZRHmyKHhRNwpCMiLn-63" target="i1PZRHmyKHhRNwpCMiLn-53">
          <mxGeometry width="50" height="50" relative="1" as="geometry">
            <mxPoint x="920" y="170" as="sourcePoint" />
            <mxPoint x="900" y="160" as="targetPoint" />
          </mxGeometry>
        </mxCell>
        <mxCell id="i1PZRHmyKHhRNwpCMiLn-63" value="total_price" style="ellipse;whiteSpace=wrap;html=1;align=center;" vertex="1" parent="1">
          <mxGeometry x="890" y="100" width="100" height="40" as="geometry" />
        </mxCell>
        <mxCell id="i1PZRHmyKHhRNwpCMiLn-64" value="Make" style="shape=rhombus;perimeter=rhombusPerimeter;whiteSpace=wrap;html=1;align=center;" vertex="1" parent="1">
          <mxGeometry x="580" y="155" width="80" height="50" as="geometry" />
        </mxCell>
        <mxCell id="i1PZRHmyKHhRNwpCMiLn-69" value="Order" style="shape=rhombus;perimeter=rhombusPerimeter;whiteSpace=wrap;html=1;align=center;" vertex="1" parent="1">
          <mxGeometry x="526" y="260" width="80" height="50" as="geometry" />
        </mxCell>
        <mxCell id="i1PZRHmyKHhRNwpCMiLn-107" value="" style="edgeStyle=orthogonalEdgeStyle;shape=link;rounded=0;orthogonalLoop=1;jettySize=auto;html=1;" edge="1" parent="1" source="i1PZRHmyKHhRNwpCMiLn-72" target="i1PZRHmyKHhRNwpCMiLn-69">
          <mxGeometry relative="1" as="geometry" />
        </mxCell>
        <mxCell id="i1PZRHmyKHhRNwpCMiLn-72" value="Services" style="whiteSpace=wrap;html=1;align=center;" vertex="1" parent="1">
          <mxGeometry x="516" y="370" width="100" height="40" as="geometry" />
        </mxCell>
        <mxCell id="i1PZRHmyKHhRNwpCMiLn-73" value="service_id" style="ellipse;whiteSpace=wrap;html=1;align=center;fontStyle=4;" vertex="1" parent="1">
          <mxGeometry x="560" y="441" width="100" height="40" as="geometry" />
        </mxCell>
        <mxCell id="i1PZRHmyKHhRNwpCMiLn-75" value="" style="endArrow=none;html=1;rounded=0;entryX=0.5;entryY=0;entryDx=0;entryDy=0;exitX=0.5;exitY=1;exitDx=0;exitDy=0;" edge="1" parent="1" source="i1PZRHmyKHhRNwpCMiLn-72" target="i1PZRHmyKHhRNwpCMiLn-73">
          <mxGeometry width="50" height="50" relative="1" as="geometry">
            <mxPoint x="566" y="421" as="sourcePoint" />
            <mxPoint x="530" y="324" as="targetPoint" />
            <Array as="points">
              <mxPoint x="586" y="421" />
            </Array>
          </mxGeometry>
        </mxCell>
        <mxCell id="i1PZRHmyKHhRNwpCMiLn-77" value="" style="endArrow=none;html=1;rounded=0;exitX=0.5;exitY=0;exitDx=0;exitDy=0;entryX=0.25;entryY=1;entryDx=0;entryDy=0;" edge="1" parent="1" target="i1PZRHmyKHhRNwpCMiLn-72" source="i1PZRHmyKHhRNwpCMiLn-78">
          <mxGeometry width="50" height="50" relative="1" as="geometry">
            <mxPoint x="446" y="360" as="sourcePoint" />
            <mxPoint x="906" y="400" as="targetPoint" />
          </mxGeometry>
        </mxCell>
        <mxCell id="i1PZRHmyKHhRNwpCMiLn-78" value="price" style="ellipse;whiteSpace=wrap;html=1;align=center;" vertex="1" parent="1">
          <mxGeometry x="446" y="441" width="100" height="40" as="geometry" />
        </mxCell>
        <mxCell id="i1PZRHmyKHhRNwpCMiLn-79" value="service_name" style="ellipse;whiteSpace=wrap;html=1;align=center;" vertex="1" parent="1">
          <mxGeometry x="506" y="511" width="100" height="40" as="geometry" />
        </mxCell>
        <mxCell id="i1PZRHmyKHhRNwpCMiLn-80" value="" style="endArrow=none;html=1;rounded=0;entryX=0.5;entryY=0;entryDx=0;entryDy=0;exitX=0.394;exitY=1.015;exitDx=0;exitDy=0;exitPerimeter=0;" edge="1" parent="1" source="i1PZRHmyKHhRNwpCMiLn-72" target="i1PZRHmyKHhRNwpCMiLn-79">
          <mxGeometry width="50" height="50" relative="1" as="geometry">
            <mxPoint x="576" y="420" as="sourcePoint" />
            <mxPoint x="620" y="451" as="targetPoint" />
            <Array as="points" />
          </mxGeometry>
        </mxCell>
        <mxCell id="i1PZRHmyKHhRNwpCMiLn-82" value="Pay" style="shape=rhombus;perimeter=rhombusPerimeter;whiteSpace=wrap;html=1;align=center;" vertex="1" parent="1">
          <mxGeometry x="243" y="260" width="80" height="50" as="geometry" />
        </mxCell>
        <mxCell id="i1PZRHmyKHhRNwpCMiLn-83" value="Billings" style="whiteSpace=wrap;html=1;align=center;" vertex="1" parent="1">
          <mxGeometry x="233" y="370.41" width="100" height="40" as="geometry" />
        </mxCell>
        <mxCell id="i1PZRHmyKHhRNwpCMiLn-84" value="billing_id" style="ellipse;whiteSpace=wrap;html=1;align=center;fontStyle=4;" vertex="1" parent="1">
          <mxGeometry x="277" y="441.41" width="100" height="40" as="geometry" />
        </mxCell>
        <mxCell id="i1PZRHmyKHhRNwpCMiLn-85" value="" style="endArrow=none;html=1;rounded=0;entryX=0.5;entryY=0;entryDx=0;entryDy=0;exitX=0.5;exitY=1;exitDx=0;exitDy=0;" edge="1" parent="1" source="i1PZRHmyKHhRNwpCMiLn-83" target="i1PZRHmyKHhRNwpCMiLn-84">
          <mxGeometry width="50" height="50" relative="1" as="geometry">
            <mxPoint x="283" y="421.41" as="sourcePoint" />
            <mxPoint x="247" y="324.41" as="targetPoint" />
            <Array as="points" />
          </mxGeometry>
        </mxCell>
        <mxCell id="i1PZRHmyKHhRNwpCMiLn-86" value="" style="endArrow=none;html=1;rounded=0;exitX=0.5;exitY=0;exitDx=0;exitDy=0;entryX=0.25;entryY=1;entryDx=0;entryDy=0;" edge="1" parent="1" source="i1PZRHmyKHhRNwpCMiLn-87" target="i1PZRHmyKHhRNwpCMiLn-83">
          <mxGeometry width="50" height="50" relative="1" as="geometry">
            <mxPoint x="163" y="360.41" as="sourcePoint" />
            <mxPoint x="623" y="400.41" as="targetPoint" />
          </mxGeometry>
        </mxCell>
        <mxCell id="i1PZRHmyKHhRNwpCMiLn-87" value="total_price" style="ellipse;whiteSpace=wrap;html=1;align=center;" vertex="1" parent="1">
          <mxGeometry x="163" y="441.41" width="100" height="40" as="geometry" />
        </mxCell>
        <mxCell id="i1PZRHmyKHhRNwpCMiLn-93" value="" style="endArrow=none;html=1;rounded=0;exitX=0.5;exitY=0;exitDx=0;exitDy=0;entryX=0.377;entryY=1.04;entryDx=0;entryDy=0;entryPerimeter=0;" edge="1" parent="1" source="i1PZRHmyKHhRNwpCMiLn-82" target="i1PZRHmyKHhRNwpCMiLn-33">
          <mxGeometry relative="1" as="geometry">
            <mxPoint x="400" y="310" as="sourcePoint" />
            <mxPoint x="420" y="230" as="targetPoint" />
          </mxGeometry>
        </mxCell>
        <mxCell id="i1PZRHmyKHhRNwpCMiLn-94" value="1" style="resizable=0;html=1;whiteSpace=wrap;align=right;verticalAlign=bottom;" connectable="0" vertex="1" parent="i1PZRHmyKHhRNwpCMiLn-93">
          <mxGeometry x="1" relative="1" as="geometry">
            <mxPoint x="-48" y="48" as="offset" />
          </mxGeometry>
        </mxCell>
        <mxCell id="i1PZRHmyKHhRNwpCMiLn-95" value="" style="shape=link;html=1;rounded=0;exitX=0.5;exitY=1;exitDx=0;exitDy=0;entryX=0.5;entryY=0;entryDx=0;entryDy=0;" edge="1" parent="1" source="i1PZRHmyKHhRNwpCMiLn-82" target="i1PZRHmyKHhRNwpCMiLn-83">
          <mxGeometry relative="1" as="geometry">
            <mxPoint x="400" y="310" as="sourcePoint" />
            <mxPoint x="560" y="310" as="targetPoint" />
          </mxGeometry>
        </mxCell>
        <mxCell id="i1PZRHmyKHhRNwpCMiLn-96" value="N" style="resizable=0;html=1;whiteSpace=wrap;align=right;verticalAlign=bottom;" connectable="0" vertex="1" parent="i1PZRHmyKHhRNwpCMiLn-95">
          <mxGeometry x="1" relative="1" as="geometry">
            <mxPoint x="-6" y="-1" as="offset" />
          </mxGeometry>
        </mxCell>
        <mxCell id="i1PZRHmyKHhRNwpCMiLn-97" value="" style="endArrow=none;html=1;rounded=0;exitX=0;exitY=0.5;exitDx=0;exitDy=0;entryX=1;entryY=0.5;entryDx=0;entryDy=0;" edge="1" parent="1" source="i1PZRHmyKHhRNwpCMiLn-50" target="i1PZRHmyKHhRNwpCMiLn-41">
          <mxGeometry relative="1" as="geometry">
            <mxPoint x="400" y="310" as="sourcePoint" />
            <mxPoint x="510" y="310" as="targetPoint" />
          </mxGeometry>
        </mxCell>
        <mxCell id="i1PZRHmyKHhRNwpCMiLn-98" value="N" style="resizable=0;html=1;whiteSpace=wrap;align=right;verticalAlign=bottom;" connectable="0" vertex="1" parent="i1PZRHmyKHhRNwpCMiLn-97">
          <mxGeometry x="1" relative="1" as="geometry">
            <mxPoint x="20" as="offset" />
          </mxGeometry>
        </mxCell>
        <mxCell id="i1PZRHmyKHhRNwpCMiLn-99" value="" style="shape=link;html=1;rounded=0;exitX=1;exitY=0.5;exitDx=0;exitDy=0;entryX=0;entryY=0.5;entryDx=0;entryDy=0;" edge="1" parent="1" source="i1PZRHmyKHhRNwpCMiLn-50" target="i1PZRHmyKHhRNwpCMiLn-33">
          <mxGeometry relative="1" as="geometry">
            <mxPoint x="400" y="310" as="sourcePoint" />
            <mxPoint x="560" y="310" as="targetPoint" />
          </mxGeometry>
        </mxCell>
        <mxCell id="i1PZRHmyKHhRNwpCMiLn-100" value="1" style="resizable=0;html=1;whiteSpace=wrap;align=right;verticalAlign=bottom;" connectable="0" vertex="1" parent="i1PZRHmyKHhRNwpCMiLn-99">
          <mxGeometry x="1" relative="1" as="geometry">
            <mxPoint x="-30" as="offset" />
          </mxGeometry>
        </mxCell>
        <mxCell id="i1PZRHmyKHhRNwpCMiLn-101" value="" style="shape=link;html=1;rounded=0;exitX=1;exitY=0.5;exitDx=0;exitDy=0;entryX=0;entryY=0.5;entryDx=0;entryDy=0;" edge="1" parent="1" source="i1PZRHmyKHhRNwpCMiLn-33" target="i1PZRHmyKHhRNwpCMiLn-64">
          <mxGeometry relative="1" as="geometry">
            <mxPoint x="400" y="310" as="sourcePoint" />
            <mxPoint x="560" y="310" as="targetPoint" />
          </mxGeometry>
        </mxCell>
        <mxCell id="i1PZRHmyKHhRNwpCMiLn-102" value="1" style="resizable=0;html=1;whiteSpace=wrap;align=right;verticalAlign=bottom;" connectable="0" vertex="1" parent="i1PZRHmyKHhRNwpCMiLn-101">
          <mxGeometry x="1" relative="1" as="geometry">
            <mxPoint x="-61" y="-10" as="offset" />
          </mxGeometry>
        </mxCell>
        <mxCell id="i1PZRHmyKHhRNwpCMiLn-103" value="" style="shape=link;html=1;rounded=0;exitX=1;exitY=0.5;exitDx=0;exitDy=0;entryX=0;entryY=0.5;entryDx=0;entryDy=0;" edge="1" parent="1" source="i1PZRHmyKHhRNwpCMiLn-64" target="i1PZRHmyKHhRNwpCMiLn-53">
          <mxGeometry relative="1" as="geometry">
            <mxPoint x="400" y="310" as="sourcePoint" />
            <mxPoint x="560" y="310" as="targetPoint" />
          </mxGeometry>
        </mxCell>
        <mxCell id="i1PZRHmyKHhRNwpCMiLn-104" value="1" style="resizable=0;html=1;whiteSpace=wrap;align=right;verticalAlign=bottom;" connectable="0" vertex="1" parent="i1PZRHmyKHhRNwpCMiLn-103">
          <mxGeometry x="1" relative="1" as="geometry">
            <mxPoint x="-10" y="-10" as="offset" />
          </mxGeometry>
        </mxCell>
        <mxCell id="i1PZRHmyKHhRNwpCMiLn-105" value="" style="shape=link;html=1;rounded=0;entryX=0.5;entryY=0;entryDx=0;entryDy=0;exitX=0.5;exitY=1;exitDx=0;exitDy=0;" edge="1" parent="1" source="i1PZRHmyKHhRNwpCMiLn-69" target="i1PZRHmyKHhRNwpCMiLn-72">
          <mxGeometry relative="1" as="geometry">
            <mxPoint x="400" y="310" as="sourcePoint" />
            <mxPoint x="560" y="310" as="targetPoint" />
          </mxGeometry>
        </mxCell>
        <mxCell id="i1PZRHmyKHhRNwpCMiLn-106" value="N" style="resizable=0;html=1;whiteSpace=wrap;align=right;verticalAlign=bottom;" connectable="0" vertex="1" parent="i1PZRHmyKHhRNwpCMiLn-105">
          <mxGeometry x="1" relative="1" as="geometry">
            <mxPoint x="-10" y="-10" as="offset" />
          </mxGeometry>
        </mxCell>
        <mxCell id="i1PZRHmyKHhRNwpCMiLn-108" value="" style="endArrow=none;html=1;rounded=0;exitX=0.5;exitY=0;exitDx=0;exitDy=0;entryX=0.5;entryY=1;entryDx=0;entryDy=0;" edge="1" parent="1" source="i1PZRHmyKHhRNwpCMiLn-69" target="i1PZRHmyKHhRNwpCMiLn-33">
          <mxGeometry relative="1" as="geometry">
            <mxPoint x="400" y="310" as="sourcePoint" />
            <mxPoint x="457" y="204" as="targetPoint" />
          </mxGeometry>
        </mxCell>
        <mxCell id="i1PZRHmyKHhRNwpCMiLn-109" value="N" style="resizable=0;html=1;whiteSpace=wrap;align=right;verticalAlign=bottom;" connectable="0" vertex="1" parent="i1PZRHmyKHhRNwpCMiLn-108">
          <mxGeometry x="1" relative="1" as="geometry">
            <mxPoint x="56" y="50" as="offset" />
          </mxGeometry>
        </mxCell>
      </root>
    </mxGraphModel>
  </diagram>
</mxfile>
